HIERARCHY
ROOT Hips
{
  OFFSET 90.7885 88.945 -76.2838
  CHANNELS 6 Xposition Yposition Zposition Zrotation Xrotation Yrotation
  JOINT LeftUpLeg
  {
    OFFSET 8.64259 1.95398 -2.38835
    CHANNELS 3 Zrotation Xrotation Yrotation
    JOINT LeftLeg
    {
      OFFSET 43.7702 0 0
      CHANNELS 3 Zrotation Xrotation Yrotation
      JOINT LeftFoot
      {
        OFFSET 40.6238 0 0
        CHANNELS 3 Zrotation Xrotation Yrotation
        JOINT LeftToeBase
        {
          OFFSET 12.7242 0 0
          CHANNELS 3 Zrotation Xrotation Yrotation
          End Site
          {
            OFFSET 0 0 0
          }
        }
      }
    }
  }
  JOINT RightUpLeg
  {
    OFFSET -8.2249 1.95398 -2.59336
    CHANNELS 3 Zrotation Xrotation Yrotation
    JOINT RightLeg
    {
      OFFSET 43.5653 0 0
      CHANNELS 3 Zrotation Xrotation Yrotation
      JOINT RightFoot
      {
        OFFSET 40.6238 0 0
        CHANNELS 3 Zrotation Xrotation Yrotation
        JOINT RightToeBase
        {
          OFFSET 12.7242 0 0
          CHANNELS 3 Zrotation Xrotation Yrotation
          End Site
          {
            OFFSET 0 0 0
          }
        }
      }
    }
  }
  JOINT Spine
  {
    OFFSET 0.165834 0.87714 6.61349
    CHANNELS 3 Zrotation Xrotation Yrotation
    JOINT Spine1
    {
      OFFSET 7.38963 1.71661e-005 0
      CHANNELS 3 Zrotation Xrotation Yrotation
      JOINT Spine2
      {
        OFFSET 11.9445 1.14441e-005 0
        CHANNELS 3 Zrotation Xrotation Yrotation
        JOINT Spine3
        {
          OFFSET 14.7254 4.19617e-005 0
          CHANNELS 3 Zrotation Xrotation Yrotation
          JOINT Spine4
          {
            OFFSET 10.9679 0 0
            CHANNELS 3 Zrotation Xrotation Yrotation
            JOINT RightShoulder
            {
              OFFSET 2.46616 -1.6653 3.69651
              CHANNELS 3 Zrotation Xrotation Yrotation
              JOINT RightArm
              {
                OFFSET 13.0012 0 0
                CHANNELS 3 Zrotation Xrotation Yrotation
                JOINT RightForeArm
                {
                  OFFSET 28.7848 1.52588e-005 0
                  CHANNELS 3 Zrotation Xrotation Yrotation
                  JOINT RightHand
                  {
                    OFFSET 26.5688 1.52588e-005 0
                    CHANNELS 3 Zrotation Xrotation Yrotation
                    End Site
                    {
                      OFFSET 0 0 0
                    }
                  }
                }
              }
            }
            JOINT LeftShoulder
            {
              OFFSET 2.38034 -1.29275 -3.7523
              CHANNELS 3 Zrotation Xrotation Yrotation
              JOINT LeftArm
              {
                OFFSET 16.3182 6.10352e-005 0
                CHANNELS 3 Zrotation Xrotation Yrotation
                JOINT LeftForeArm
                {
                  OFFSET 27.0901 0 0
                  CHANNELS 3 Zrotation Xrotation Yrotation
                  JOINT LeftHand
                  {
                    OFFSET 24.5451 1.52588e-005 0
                    CHANNELS 3 Zrotation Xrotation Yrotation
                    End Site
                    {
                      OFFSET 0 0 0
                    }
                  }
                }
              }
            }
            JOINT Neck
            {
              OFFSET 5.0226 -0.0266342 0
              CHANNELS 3 Zrotation Xrotation Yrotation
              JOINT Head
              {
                OFFSET 6.69363 2.86102e-005 0
                CHANNELS 3 Zrotation Xrotation Yrotation
                End Site
                {
                  OFFSET 0 0 0
                }
              }
            }
          }
        }
      }
    }
  }
}
MOTION
Frames:	18
Frame Time:	0.0416667
40.8914 93.4426 -164.18 -27.1607 -87.5251 -28.438 -178.799 35.7625 95.6779 -33.1687 16.6072 0.905607 66.3373 3.25806 -1.87419 21.6858 -0.548353 1.88031 175.449 -12.8526 91.5198 -51.9374 -22.9061 -4.42828 65.9292 -3.40495 -2.19154 20.1895 -2.3871 6.36683 1.3927 7.58214 -89.5675 11.7074 2.97308 0.550996 0.0398274 2.99446 0.419498 -22.5177 2.66996 1.41965 -2.50506 2.66996 1.41963 90.9563 -24.4515 -106.989 37.1259 -12.7157 -1.51595 -35.2296 -0.179151 -89.8462 -25.0672 1.05983 -18.9816 -87.4195 -46.2323 81.9252 -23.0369 34.1534 26.6237 52.2291 -23.9387 -92.6347 -1.33523 -0.18938 -15.3668 24.4587 -9.46323 -11.8056 -13.9723 -5.47591 4.83483 
42.095 91.7298 -152.753 -82.2896 -86.725 -85.2814 -176.917 33.3438 93.5007 -46.9806 11.7046 1.06321 70.2344 4.94639 0.139697 27.1136 1.79182 -2.25434 173.144 -1.82024 86.5485 -70.9738 -9.12598 -2.97528 72.1095 -6.4764 -2.17389 19.1116 -3.06408 7.75095 0.760843 7.58053 -89.4628 11.7061 1.76543 0.88568 0.0360668 1.80269 0.80709 -22.5034 1.41764 1.37534 -2.49077 1.41764 1.37534 91.2505 -28.0473 -104.97 41.2878 -19.4367 8.2332 -40.1775 -11.439 -76.7386 -24.0066 0.216435 -18.0437 -88.2823 -52.3181 81.722 -18.3091 28.9585 10.3691 46.7535 -17.6767 -91.1735 -0.166289 -0.28842 -14.6205 20.3688 -5.77232 -14.5981 -10.5845 -1.47962 7.02949 
42.0657 91.3318 -142.298 -114.496 -84.4159 -121.345 -173.607 23.9956 90.7232 -50.0641 10.3849 -1.19404 80.5608 8.92225 -1.56916 25.5856 1.95936 -2.18153 173.644 11.1319 84.2954 -83.1054 1.80994 -2.66124 80.2729 -11.0703 -4.64061 13.7334 -0.960064 4.35866 -0.0399591 7.93541 -89.1458 10.9975 0.316234 1.66809 -0.674437 0.389329 1.65256 -23.2012 -0.199645 1.68602 -3.18858 -0.199638 1.68603 92.1112 -28.4243 -103.067 44.2185 -11.2812 18.629 -43.2737 -20.6586 -73.4052 -20.8526 -0.336103 -19.62 -88.9451 -56.1706 81.4471 -7.15491 24.731 -13.8318 47.1572 -16.1888 -91.002 -1.70272 -0.134218 -12.2498 22.6943 -1.81433 -12.0102 -10.9665 1.9336 4.80792 
41.6311 92.0371 -131.262 -107.909 -80.7939 -113.044 -172.339 14.0814 95.163 -48.9011 10.3901 -1.90063 82.6986 10.134 1.40441 33.7638 1.22847 -2.86272 176.177 22.98 88.2389 -81.9997 1.6948 -2.11228 81.736 -12.0072 -4.10314 12.4533 -1.44575 5.3321 -0.532502 7.82305 -89.3523 11.2331 -0.75822 1.36728 -0.438371 -0.697309 1.39931 -22.9714 -1.13408 1.07623 -2.95877 -1.13408 1.07624 93.6859 -26.4899 -100.399 45.3318 -4.04829 27.8416 -34.8434 -19.875 -66.9506 -19.7126 0.276342 -21.9066 -88.1933 -50.363 81.5095 -5.1499 16.6235 -26.6587 46.6999 -15.8935 -92.9583 -0.831066 -0.195858 -12.1726 20.3645 3.1452 -8.83096 -11.0191 5.59736 3.42156 
40.5263 94.4249 -119.182 -107.616 -76.1 -112.519 -171.281 -0.531294 90.6235 -39.738 10.0932 -3.15361 71.8199 5.42662 2.77701 49.4605 -0.0679044 -5.15375 176.524 27.3179 91.9724 -67.1278 1.75187 -1.6008 79.9781 -10.7351 -3.48544 12.6605 -1.4031 5.23384 -0.997519 7.73816 -89.5199 11.4061 -1.76067 1.13326 -0.264274 -1.70911 1.20965 -22.8077 -2.01985 0.551561 -2.79501 -2.01984 0.551564 94.3046 -24.013 -99.8167 42.9797 -2.15925 34.8544 -35.4831 -19.6588 -66.2747 -18.7598 0.428569 -24.4886 -86.0698 -43.2359 83.5467 -6.05802 9.55015 -25.4644 43.9022 -18.4184 -99.0592 -0.251272 -0.26288 -13.4625 18.0874 9.20994 -2.13821 -11.8984 9.53694 0.412359 
38.6387 96.8482 -106.783 -107.852 -72.4946 -112.781 -171.922 -8.15333 93.7714 -34.6151 14.4491 -1.9986 55.3773 -1.60617 -1.9182 48.0543 0.52408 -5.81368 176.153 24.2915 95.4424 -43.2131 -1.14602 -0.268447 71.4565 -6.6502 -2.45233 17.1668 -1.63152 5.21351 -1.17297 7.65086 -89.6104 11.5827 -2.15091 0.998487 -0.0869147 -2.10488 1.0922 -22.6359 -2.35151 0.305574 -2.62321 -2.35151 0.30557 93.6911 -22.0683 -101.851 41.9958 -1.58146 41.9057 -31.7352 -20.6706 -64.8985 -21.745 1.13351 -25.1602 -84.7213 -35.613 84.5372 -7.57268 6.45283 -21.6579 45.0169 -20.8151 -102.779 -3.36317 0.00589399 -15.4871 15.7914 12.911 2.0172 -12.8232 12.2055 -1.80453 
36.8204 97.0389 -95.0247 -107.677 -71.5303 -113.441 -171.342 -7.65834 94.4381 -43.5526 27.7195 0.445482 54.1386 -1.82163 -2.11743 30.719 -2.31185 3.33366 176.467 19.8476 96.9151 -22.1602 -10.5825 0.34914 61.4834 -1.80423 0.3676 20.3195 -1.74546 5.11848 -1.10427 7.46589 -89.5694 11.9528 -1.99267 1.0735 0.282875 -1.94349 1.16018 -22.2638 -2.22315 0.424747 -2.25114 -2.22314 0.42476 93.5384 -19.5596 -103.148 45.1928 -2.03942 48.1753 -28.9144 -17.343 -64.2205 -20.576 1.3972 -26.2208 -83.6928 -32.9158 85.97 -3.7092 9.49666 -21.3553 44.337 -22.8435 -103.982 -4.71328 0.166141 -16.7578 10.7735 13.3957 3.20257 -9.92871 12.5505 -2.47808 
34.9277 95.3289 -84.1055 -114.624 -72.3387 -122.683 -170.711 -3.2966 95.7334 -56.7877 23.8458 2.34409 59.2883 0.141847 -1.86162 36.6282 -1.25967 0.592151 177.387 18.8654 95.9375 -21.481 -19.7554 -1.14739 58.1075 0.284977 -0.272951 19.4419 -1.59669 4.91834 -1.00078 7.44409 -89.2237 11.9989 -1.62328 1.72733 0.327756 -1.54569 1.79707 -22.2108 -2.06734 1.15959 -2.19817 -2.06734 1.15958 93.3371 -19.5547 -103.637 50.0067 -3.55642 51.4138 -28.501 -14.894 -64.9385 -21.2209 1.72685 -26.8257 -84.6517 -35.4416 84.6417 -2.38183 9.74103 -16.4484 43.9103 -25.0801 -106.496 -3.56718 0.0195158 -14.9801 7.65349 11.7585 1.04152 -8.01532 11.4435 -2.0484 
33.0652 92.4431 -73.4591 -126.6 -72.1653 -135.699 -170.55 3.82456 98.284 -69.5922 12.2647 3.91624 64.3428 2.41488 1.42162 35.0413 1.5921 -3.87432 176.332 19.5924 95.8971 -38.6122 -24.105 -1.32772 66.8259 -3.70247 -6.07269 0.531501 -1.65629 6.49728 -0.762172 7.65642 -89.0532 11.5647 -1.07302 1.99833 -0.107442 -0.984055 2.04358 -22.6375 -1.62393 1.58359 -2.62487 -1.62392 1.58359 92.4979 -22.1533 -104.534 49.9992 -3.61971 50.0248 -32.2771 -17.3958 -67.6146 -25.7619 2.1001 -26.2882 -85.8096 -41.3853 83.6642 -2.14358 10.7188 -8.05173 44.075 -26.5143 -108.033 -3.21116 -0.00426893 -16.6376 6.4988 9.61204 0.563715 -5.98569 9.44457 -3.15292 
31.0208 89.1703 -65.0219 -126.449 -72.8183 -131.992 -173.191 19.6683 103.374 -79.3928 5.23782 6.19561 71.0542 5.58934 4.21091 29.784 5.06687 -7.71013 177.336 21.1373 101.477 -52.2144 -19.8108 -0.41583 77.8979 -10.5622 -9.90292 -4.69314 -1.4296 6.52935 -0.294548 7.88173 -89.6208 11.1112 -0.410208 0.794531 -0.559876 -0.374839 0.811804 -23.0942 -0.630031 0.634516 -3.08156 -0.630027 0.634519 94.2829 -24.4776 -99.723 47.8392 -9.94444 36.7587 -35.0418 -14.9385 -69.8584 -24.0641 1.5857 -25.2647 -84.537 -48.5597 86.76 -5.75231 11.9298 -2.38049 44.5211 -23.7178 -104.522 -1.93804 -0.125516 -13.5802 12.9066 7.99321 1.02057 -7.8294 7.72175 -3.51867 
28.7051 88.3517 -55.858 -124.16 -71.3247 -129.785 -177.797 28.0373 102.142 -76.4902 2.88659 6.85475 75.3828 7.12641 3.22802 25.6833 5.94466 -7.65783 178.697 14.7784 101.708 -55.2232 -20.3916 -1.0892 86.1787 -15.4397 -9.52209 -1.75502 -1.97087 7.04071 0.0606902 8.05041 -89.7728 10.7725 0.225645 0.43023 -0.898503 0.244364 0.419883 -23.4334 0.0858935 0.478158 -3.42073 0.0859029 0.47816 94.3198 -25.5332 -99.3231 41.2809 -14.7821 20.0098 -43.5217 -11.6406 -76.3291 -22.5509 0.243612 -20.6766 -84.9237 -56.0507 87.0908 -11.2167 7.00816 14.0324 44.9774 -22.1449 -104.866 -4.44647 0.119991 -16.2298 15.4514 6.4751 2.17186 -8.36895 5.93193 -4.06172 
25.7819 89.5155 -46.2402 -121.738 -69.0101 -129.627 179.748 28.9384 97.8029 -63.058 8.36918 6.76919 73.4779 6.47125 3.05484 25.4399 5.74207 -7.32593 177.868 4.75036 98.6374 -52.6929 -21.901 -1.93512 88.7254 -16.2741 -7.68727 0.468807 -3.15913 8.49958 0.879309 8.04021 -89.4199 10.7872 2.01888 0.970236 -0.882619 2.05962 0.880405 -23.423 1.63396 1.5322 -3.41032 1.63396 1.5322 93.2737 -23.8745 -102.15 41.4599 -14.2857 13.0376 -40.3506 -5.95682 -82.6572 -23.7999 0.613396 -19.674 -83.4823 -55.3257 89.0646 -16.5653 9.5292 25.5884 43.9115 -25.03 -106.911 -2.45227 -0.0797936 -15.8864 12.2185 2.76431 2.22464 -6.65362 2.42098 -6.48559 
22.3089 90.4636 -36.5034 -112.194 -64.7152 -122.807 179.852 25.0931 95.2329 -42.5805 17.6289 5.13461 71.4685 5.6151 -0.506971 27.0725 0.261283 -0.0675085 177.585 -0.781939 94.6628 -53.4304 -25.0556 -3.94025 84.201 -13.6735 -8.14275 5.22176 -5.19969 11.3693 2.33318 8.0325 -88.9302 10.7785 5.13949 1.65041 -0.883109 5.20712 1.42207 -23.4733 4.40575 3.12086 -3.46062 4.40575 3.12085 92.7557 -19.4728 -105.07 45.4866 -12.8215 13.1552 -42.6263 1.79957 -92.3533 -24.8963 0.791773 -19.6769 -82.5094 -51.991 90.1743 -17.919 14.9652 31.3897 41.9783 -29.5945 -110.348 -1.10366 -0.21831 -15.7472 13.0175 -1.4241 1.92277 -7.70781 -1.36776 -10.1311 
18.6046 89.9719 -27.082 -102.007 -59.1975 -114.408 -178.828 22.3237 95.1928 -27.4195 26.8193 3.06755 64.4915 2.48273 -1.48163 31.2551 -0.546191 0.381327 177.036 -0.604562 91.2137 -59.6416 -26.7417 -4.74914 76.5623 -9.26247 -7.89024 8.40592 -4.95477 11.0636 3.61486 7.95117 -88.6699 10.9205 7.81199 1.90843 -0.727773 7.88835 1.56074 -23.4064 6.87612 4.17726 -3.39374 6.87612 4.17725 92.4264 -15.0232 -108.009 46.5763 -13.8854 15.1749 -44.5161 10.322 -101.533 -25.1922 0.472354 -17.2766 -81.6231 -53.9913 91.6202 -9.6478 14.3135 34.1464 42.0822 -33.5409 -115.316 -1.58113 -0.184135 -17.8633 15.9934 -4.10876 2.42205 -9.62131 -3.88781 -11.7232 
15.246 87.2972 -18.5635 -96.2783 -56.0122 -109.11 -179.518 23.8822 96.3369 -31.8922 30.5984 4.82057 67.1759 3.29092 -3.65102 28.4735 -6.60747 9.67476 175.94 4.54422 90.1287 -71.7088 -16.5405 -2.9928 72.0443 -6.41506 -4.98012 13.9148 -1.86371 5.92661 3.92102 7.88126 -88.6815 11.0633 8.41635 1.81179 -0.580943 8.48788 1.43703 -23.2889 7.48112 4.2698 -3.27625 7.48113 4.2698 92.3876 -15.3658 -107.945 49.0119 -15.0791 18.5163 -38.1233 12.3429 -105.781 -26.7479 1.57904 -19.4879 -81.3608 -60.9984 92.4076 0.0828651 9.75916 28.2716 41.2415 -31.8536 -116.655 -2.20358 -0.108613 -19.1596 22.11 -3.98757 2.67354 -12.1619 -3.73222 -11.1542 
12.1261 83.8227 -11.9642 -96.8032 -55.371 -111.363 -178.163 24.9915 96.4025 -44.4698 27.832 4.69717 74.6367 5.51385 -7.72015 43.3195 -4.48643 5.74742 175.16 14.127 88.6965 -90.552 -4.94447 -1.85175 79.8722 -10.3263 -3.91609 13.7936 -1.30774 4.95542 3.03164 8.34886 -88.4084 10.1041 6.76561 2.60178 -1.55112 6.87357 2.30034 -24.1716 5.67063 4.51858 -4.15896 5.67064 4.51859 91.5387 -19.8253 -107.78 52.7698 -10.8272 19.188 -40.2412 5.59473 -99.7647 -25.9529 0.7639 -17.4595 -83.9194 -67.3553 89.5402 5.21766 6.84039 7.34384 43.2255 -28.1562 -111.587 -2.82467 -0.063929 -16.7597 32.0685 -3.04804 -1.63648 -13.0445 -1.25599 -9.32502 
8.25232 82.078 -6.54533 -96.5404 -54.7618 -113.767 -176.447 22.9242 95.0529 -49.8877 26.5263 3.59537 81.6148 7.93148 -8.22154 43.9785 -3.9053 4.38186 176.298 27.3471 85.4015 -103.56 -4.26334 -1.57522 85.3414 -13.2908 -4.32257 11.7121 -2.16976 6.58007 1.66948 8.57561 -88.0054 9.64124 4.22899 3.62445 -2.02737 4.38432 3.43481 -24.5524 2.94553 4.7266 -4.53976 2.94553 4.72659 91.9539 -22.4421 -105.649 56.7669 -11.1908 22.2737 -37.4662 2.29143 -92.2335 -24.1202 0.913404 -18.7274 -89.0452 -66.0251 82.9143 10.4913 2.02033 -22.7933 48.5357 -26.2691 -105.769 -5.59574 0.139533 -12.4765 35.8148 -3.45701 -7.47457 -12.9166 0.856894 -7.26693 
2.94701 81.4486 -1.24409 -93.4162 -51.9783 -108.337 -175.051 19.0101 99.1921 -51.8997 23.2047 4.18202 86.9924 9.35658 -10.4381 46.1493 -3.88231 4.09225 174.506 40.6285 89.1837 -104.947 -2.17785 -1.08678 89.5044 -15.1465 -3.38284 11.3787 -2.09938 6.4802 0.435322 8.18507 -88.3052 10.4693 1.6446 3.22221 -1.20443 1.78473 3.14679 -23.7093 0.600862 3.56706 -3.69663 0.600849 3.56705 93.2792 -18.897 -104.047 62.5819 -20.1291 31.648 -36.8292 10.1379 -93.2819 -18.6941 1.37487 -23.8392 -87.4185 -55.6456 83.5146 10.057 -8.89379 -43 46.723 -22.6854 -105.277 -5.04471 0.123889 -13.5429 31.4099 -4.16947 -10.9552 -13.2223 1.26149 -6.52912 
